<mxfile host="app.diagrams.net" agent="Mozilla/5.0 (Windows NT 10.0; Win64; x64) AppleWebKit/537.36 (KHTML, like Gecko) Chrome/130.0.0.0 Safari/537.36 Edg/130.0.0.0" version="24.8.4">
  <diagram id="prtHgNgQTEPvFCAcTncT" name="Page-1">
    <mxGraphModel dx="1213" dy="768" grid="0" gridSize="10" guides="1" tooltips="1" connect="1" arrows="1" fold="1" page="1" pageScale="1" pageWidth="827" pageHeight="1169" background="#ffffff" math="0" shadow="0">
      <root>
        <mxCell id="0" />
        <mxCell id="1" parent="0" />
        <mxCell id="bthAUTXFsCZ4JjLe4jeX-5" style="edgeStyle=orthogonalEdgeStyle;rounded=0;orthogonalLoop=1;jettySize=auto;html=1;endArrow=none;endFill=0;" edge="1" parent="1" source="bthAUTXFsCZ4JjLe4jeX-1" target="bthAUTXFsCZ4JjLe4jeX-2">
          <mxGeometry relative="1" as="geometry">
            <Array as="points">
              <mxPoint x="390" y="220" />
              <mxPoint x="250" y="220" />
            </Array>
          </mxGeometry>
        </mxCell>
        <mxCell id="bthAUTXFsCZ4JjLe4jeX-7" style="edgeStyle=orthogonalEdgeStyle;rounded=0;orthogonalLoop=1;jettySize=auto;html=1;entryX=0.5;entryY=0;entryDx=0;entryDy=0;endArrow=none;endFill=0;" edge="1" parent="1" source="bthAUTXFsCZ4JjLe4jeX-1" target="bthAUTXFsCZ4JjLe4jeX-6">
          <mxGeometry relative="1" as="geometry" />
        </mxCell>
        <mxCell id="bthAUTXFsCZ4JjLe4jeX-9" style="edgeStyle=orthogonalEdgeStyle;rounded=0;orthogonalLoop=1;jettySize=auto;html=1;endArrow=none;endFill=0;" edge="1" parent="1" source="bthAUTXFsCZ4JjLe4jeX-1" target="bthAUTXFsCZ4JjLe4jeX-8">
          <mxGeometry relative="1" as="geometry">
            <Array as="points">
              <mxPoint x="390" y="220" />
              <mxPoint x="430" y="220" />
            </Array>
          </mxGeometry>
        </mxCell>
        <mxCell id="bthAUTXFsCZ4JjLe4jeX-11" style="edgeStyle=orthogonalEdgeStyle;rounded=0;orthogonalLoop=1;jettySize=auto;html=1;entryX=0.5;entryY=0;entryDx=0;entryDy=0;endArrow=none;endFill=0;" edge="1" parent="1" source="bthAUTXFsCZ4JjLe4jeX-1" target="bthAUTXFsCZ4JjLe4jeX-10">
          <mxGeometry relative="1" as="geometry">
            <Array as="points">
              <mxPoint x="390" y="220" />
              <mxPoint x="525" y="220" />
            </Array>
          </mxGeometry>
        </mxCell>
        <mxCell id="bthAUTXFsCZ4JjLe4jeX-1" value="assoicated input files" style="rounded=0;whiteSpace=wrap;html=1;" vertex="1" parent="1">
          <mxGeometry x="330" y="120" width="120" height="60" as="geometry" />
        </mxCell>
        <mxCell id="bthAUTXFsCZ4JjLe4jeX-13" value="" style="edgeStyle=orthogonalEdgeStyle;rounded=0;orthogonalLoop=1;jettySize=auto;html=1;" edge="1" parent="1" source="bthAUTXFsCZ4JjLe4jeX-2" target="bthAUTXFsCZ4JjLe4jeX-12">
          <mxGeometry relative="1" as="geometry">
            <Array as="points">
              <mxPoint x="250" y="400" />
              <mxPoint x="250" y="400" />
            </Array>
          </mxGeometry>
        </mxCell>
        <mxCell id="bthAUTXFsCZ4JjLe4jeX-20" value="parse" style="edgeLabel;html=1;align=center;verticalAlign=middle;resizable=0;points=[];" vertex="1" connectable="0" parent="bthAUTXFsCZ4JjLe4jeX-13">
          <mxGeometry x="-0.1083" y="4" relative="1" as="geometry">
            <mxPoint x="-4" y="4" as="offset" />
          </mxGeometry>
        </mxCell>
        <mxCell id="bthAUTXFsCZ4JjLe4jeX-2" value="XX.nets" style="rounded=0;whiteSpace=wrap;html=1;" vertex="1" parent="1">
          <mxGeometry x="220" y="260" width="60" height="100" as="geometry" />
        </mxCell>
        <mxCell id="bthAUTXFsCZ4JjLe4jeX-15" value="" style="edgeStyle=orthogonalEdgeStyle;rounded=0;orthogonalLoop=1;jettySize=auto;html=1;" edge="1" parent="1" source="bthAUTXFsCZ4JjLe4jeX-6" target="bthAUTXFsCZ4JjLe4jeX-14">
          <mxGeometry relative="1" as="geometry">
            <Array as="points">
              <mxPoint x="340" y="400" />
              <mxPoint x="340" y="400" />
            </Array>
          </mxGeometry>
        </mxCell>
        <mxCell id="bthAUTXFsCZ4JjLe4jeX-21" value="parse" style="edgeLabel;html=1;align=center;verticalAlign=middle;resizable=0;points=[];" vertex="1" connectable="0" parent="bthAUTXFsCZ4JjLe4jeX-15">
          <mxGeometry x="-0.0333" relative="1" as="geometry">
            <mxPoint as="offset" />
          </mxGeometry>
        </mxCell>
        <mxCell id="bthAUTXFsCZ4JjLe4jeX-6" value="XX.blocks" style="rounded=0;whiteSpace=wrap;html=1;" vertex="1" parent="1">
          <mxGeometry x="310" y="260" width="60" height="100" as="geometry" />
        </mxCell>
        <mxCell id="bthAUTXFsCZ4JjLe4jeX-17" value="" style="edgeStyle=orthogonalEdgeStyle;rounded=0;orthogonalLoop=1;jettySize=auto;html=1;" edge="1" parent="1" source="bthAUTXFsCZ4JjLe4jeX-8" target="bthAUTXFsCZ4JjLe4jeX-16">
          <mxGeometry relative="1" as="geometry">
            <Array as="points">
              <mxPoint x="430" y="390" />
              <mxPoint x="430" y="390" />
            </Array>
          </mxGeometry>
        </mxCell>
        <mxCell id="bthAUTXFsCZ4JjLe4jeX-22" value="parse" style="edgeLabel;html=1;align=center;verticalAlign=middle;resizable=0;points=[];" vertex="1" connectable="0" parent="bthAUTXFsCZ4JjLe4jeX-17">
          <mxGeometry x="-0.2333" y="4" relative="1" as="geometry">
            <mxPoint x="-4" y="9" as="offset" />
          </mxGeometry>
        </mxCell>
        <mxCell id="bthAUTXFsCZ4JjLe4jeX-8" value="XX.pl" style="rounded=0;whiteSpace=wrap;html=1;" vertex="1" parent="1">
          <mxGeometry x="400" y="260" width="60" height="100" as="geometry" />
        </mxCell>
        <mxCell id="bthAUTXFsCZ4JjLe4jeX-19" value="" style="edgeStyle=orthogonalEdgeStyle;rounded=0;orthogonalLoop=1;jettySize=auto;html=1;" edge="1" parent="1" source="bthAUTXFsCZ4JjLe4jeX-10" target="bthAUTXFsCZ4JjLe4jeX-18">
          <mxGeometry relative="1" as="geometry">
            <Array as="points">
              <mxPoint x="520" y="410" />
              <mxPoint x="520" y="410" />
            </Array>
          </mxGeometry>
        </mxCell>
        <mxCell id="bthAUTXFsCZ4JjLe4jeX-23" value="parse" style="edgeLabel;html=1;align=center;verticalAlign=middle;resizable=0;points=[];" vertex="1" connectable="0" parent="bthAUTXFsCZ4JjLe4jeX-19">
          <mxGeometry x="0.1167" relative="1" as="geometry">
            <mxPoint y="-5" as="offset" />
          </mxGeometry>
        </mxCell>
        <mxCell id="bthAUTXFsCZ4JjLe4jeX-10" value="XX.rul" style="rounded=0;whiteSpace=wrap;html=1;" vertex="1" parent="1">
          <mxGeometry x="490" y="260" width="60" height="100" as="geometry" />
        </mxCell>
        <mxCell id="bthAUTXFsCZ4JjLe4jeX-12" value="netlist" style="rounded=0;whiteSpace=wrap;html=1;" vertex="1" parent="1">
          <mxGeometry x="220" y="440" width="60" height="80" as="geometry" />
        </mxCell>
        <mxCell id="bthAUTXFsCZ4JjLe4jeX-14" value="modules,&lt;div&gt;bgaPins&lt;/div&gt;" style="rounded=0;whiteSpace=wrap;html=1;" vertex="1" parent="1">
          <mxGeometry x="310" y="440" width="60" height="80" as="geometry" />
        </mxCell>
        <mxCell id="bthAUTXFsCZ4JjLe4jeX-16" value="the coordinates&lt;div&gt;of&amp;nbsp;&lt;/div&gt;&lt;div&gt;IC-pins&lt;/div&gt;" style="rounded=0;whiteSpace=wrap;html=1;" vertex="1" parent="1">
          <mxGeometry x="392.5" y="440" width="75" height="80" as="geometry" />
        </mxCell>
        <mxCell id="bthAUTXFsCZ4JjLe4jeX-18" value="ruleType&lt;div&gt;matrix&lt;/div&gt;" style="rounded=0;whiteSpace=wrap;html=1;" vertex="1" parent="1">
          <mxGeometry x="490" y="440" width="60" height="80" as="geometry" />
        </mxCell>
      </root>
    </mxGraphModel>
  </diagram>
</mxfile>
